<?xml version="1.0" encoding="utf-8"?>
<!-- Generator: Adobe Illustrator 16.0.0, SVG Export Plug-In . SVG Version: 6.00 Build 0)  -->
<!DOCTYPE svg PUBLIC "-//W3C//DTD SVG 1.1//EN" "http://www.w3.org/Graphics/SVG/1.1/DTD/svg11.dtd">
<svg version="1.1" id="Ebene_1" xmlns="http://www.w3.org/2000/svg" xmlns:xlink="http://www.w3.org/1999/xlink" x="0px" y="0px"
	 width="16px" height="16px" viewBox="0 0 16 16" enable-background="new 0 0 16 16" xml:space="preserve">
<rect fill="#21C8F0" width="16" height="16"/>
<polygon fill="#FFFFFF" stroke="#FFFFFF" stroke-width="0.5" stroke-miterlimit="10" points="1.75,14.3 4.679,14.3 4.679,12.852 
	4.368,12.852 4.368,11.84 4.193,11.84 4.234,5.909 12.065,5.909 12.078,11.84 11.971,11.84 11.971,12.852 11.638,12.852 
	11.638,14.284 14.564,14.3 14.564,12.852 14.256,12.852 14.256,11.84 14.082,11.84 14.082,4.251 13.844,3.059 13.581,4.251 
	13.125,2.366 12.646,4.251 12.297,3.059 12.053,4.245 12.05,5.082 4.193,5.082 4.193,4.251 3.957,3.059 3.697,4.256 3.238,2.366 
	2.758,4.251 2.409,3.059 2.248,4.251 2.248,11.84 2.084,11.84 2.086,12.856 1.75,12.854 "/>
<path fill="#FFFFFF" stroke="#FFFFFF" stroke-width="0.5" stroke-miterlimit="10" d="M12.37,12.156l-3.386-1.705l-0.202,0.4
	c0,0,1.83,1.037,2.765,2.244c0.936,1.21,0.277,0.141,0.277,0.141L12.37,12.156z"/>
<path fill="#FFFFFF" stroke="#FFFFFF" stroke-width="0.5" stroke-miterlimit="10" d="M2.16,7.173"/>
<path fill="#FFFFFF" stroke="#FFFFFF" stroke-width="0.5" stroke-miterlimit="10" d="M1.75,13.082"/>
<path fill="#FFFFFF" stroke="#FFFFFF" stroke-width="0.5" stroke-miterlimit="10" d="M1.436,13.044"/>
<path fill="#FFFFFF" stroke="#FFFFFF" stroke-width="0.5" stroke-miterlimit="10" d="M2.632,6.779"/>
<path fill="#FFFFFF" stroke="#FFFFFF" stroke-width="0.5" stroke-miterlimit="10" d="M2.086,12.909"/>
<path fill="#FFFFFF" stroke="#FFFFFF" stroke-width="0.5" stroke-miterlimit="10" d="M1.771,12.87"/>
<path fill="#FFFFFF" stroke="#FFFFFF" stroke-width="0.5" stroke-miterlimit="10" d="M4.029,12.156l3.385-1.705l0.201,0.4
	c0,0-1.83,1.037-2.764,2.244c-0.935,1.21-0.278,0.141-0.278,0.141L4.029,12.156z"/>
</svg>
