<?xml version="1.0" encoding="utf-8"?>
<!-- Generator: Adobe Illustrator 16.0.0, SVG Export Plug-In . SVG Version: 6.00 Build 0)  -->
<!DOCTYPE svg PUBLIC "-//W3C//DTD SVG 1.1//EN" "http://www.w3.org/Graphics/SVG/1.1/DTD/svg11.dtd">
<svg version="1.1" id="Ebene_1" xmlns="http://www.w3.org/2000/svg" xmlns:xlink="http://www.w3.org/1999/xlink" x="0px" y="0px"
	 width="16px" height="16px" viewBox="0 0 16 16" enable-background="new 0 0 16 16" xml:space="preserve">
<rect fill="#8AC858" width="16" height="16"/>
<path fill="#FFFFFF" d="M1.266,10.273c0,0,6.295-8.585,13.776,0"/>
<path fill="#FFFFFF" d="M1.266,10.178c0,0,6.295,8.586,13.776,0"/>
<path fill="#FFFFFF" d="M6.659,7.193"/>
<g>
	<rect x="6.877" y="6.539" fill="#FFFFFF" width="2.422" height="7.838"/>
	<polygon fill="#FFFFFF" points="6.877,5.553 9.297,5.55 9.299,3.76 10.633,3.76 10.633,4.869 12.73,4.869 12.73,1.557 
		10.633,1.557 10.633,2.527 9.299,2.531 9.299,1.775 4.906,1.775 1.162,4.722 4.906,3.76 6.877,3.76 	"/>
</g>
<circle fill="#8AC858" cx="8.037" cy="10.178" r="2.105"/>
<polygon fill="#FFFFFF" points="5.257,9.055 8.166,10.307 6.711,7.381 "/>
<circle fill="none" stroke="#8AC858" stroke-width="0.5" stroke-miterlimit="10" cx="8.148" cy="10.191" r="3.151"/>
</svg>
