<?xml version="1.0" encoding="utf-8"?>
<!-- Generator: Adobe Illustrator 16.0.0, SVG Export Plug-In . SVG Version: 6.00 Build 0)  -->
<!DOCTYPE svg PUBLIC "-//W3C//DTD SVG 1.1//EN" "http://www.w3.org/Graphics/SVG/1.1/DTD/svg11.dtd">
<svg version="1.1" id="Ebene_1" xmlns="http://www.w3.org/2000/svg" xmlns:xlink="http://www.w3.org/1999/xlink" x="0px" y="0px"
	 width="16px" height="16px" viewBox="0 0 16 16" enable-background="new 0 0 16 16" xml:space="preserve">
<rect fill="#626316" width="16" height="16"/>
<path fill="#FFFFFF" d="M7.971,1.247c0,0,5.359-0.164,5.031,5.031c-0.356,5.667-2.495,8.304-4.908,8.222s-4.867-3.6-4.908-8.426
	C3.145,1.247,7.971,1.247,7.971,1.247z"/>
<circle fill="#626316" cx="5.783" cy="6.463" r="0.879"/>
<circle fill="#626316" cx="10.528" cy="6.463" r="0.879"/>
<path fill="#626316" d="M6.621,11H9.73c0,0-0.563,1.319-1.545,1.319S6.621,11,6.621,11z"/>
<path fill="#FFFFFF" stroke="#626316" stroke-width="0.25" stroke-miterlimit="10" d="M8.314,6.074c0,0,0.182-1.088,2.056-1.047
	C12.244,5.067,13.553,5.35,14.318,4c0,0-0.543,3.002-1.188,3.808c-0.646,0.806-1.652,2.115-3.426,1.249
	c-1.773-0.867-0.826-1.148-2.68-0.02c-1.854,1.127-4.211-1.109-5.359-4.675c0,0,1.512,1.128,3.204,0.685S8.013,5.39,8.314,6.074z"/>
<path fill="#626316" d="M9.645,7.203c0,0,0.343-0.826,1.512-0.847c1.168-0.021,0.986-0.282,0.986-0.282S11.6,8.693,9.645,7.203z"/>
<path fill="#626316" d="M6.955,7.203c0,0-0.342-0.826-1.511-0.847S4.457,6.074,4.457,6.074S5.001,8.693,6.955,7.203z"/>
</svg>
